<svg id="display" xmlns="http://www.w3.org/2000/svg" viewBox="0 0 1920 1080">
  <defs id="defs">
    <linearGradient id="tokyuBackGradient" x1="0" y1="0" x2="0" y2="1" gradientUnits="objectBoundingBox">
      <stop offset="0.00%" stop-color="rgb(74, 75, 86)" />
      <stop offset="47.31%" stop-color="rgb(37, 37, 41)" />
      <stop offset="47.92%" stop-color="rgb(6, 6, 8)" />
      <stop offset="52.06%" stop-color="rgb(7, 7, 7)" />
      <stop offset="92.70%" stop-color="rgb(75, 74, 81)" />
      <stop offset="93.05%" stop-color="rgb(166, 167, 172)" />
      <stop offset="94.63%" stop-color="rgb(21, 21, 21)" />
      <stop offset="95.16%" stop-color="rgb(255, 255, 255)" />
      <stop offset="96.73%" stop-color="rgb(255, 255, 255)" />
      <stop offset="96.99%" stop-color="rgb(255, 0, 0)" />
      <stop offset="99.68%" stop-color="rgb(255, 0, 0)" />
      <stop offset="100.00%" stop-color="rgb(255, 30, 30)" />
    </linearGradient>
    <linearGradient id="innerGradient" x1="0" y1="0" x2="0" y2="1">
      <stop offset="0%" stop-color="rgb(255, 255, 255)" />
      <stop offset="51%" stop-color="rgb(220, 220, 220)" />
      <stop offset="51.11%" stop-color="rgb(158, 158, 158)" />
      <stop offset="81.11%" stop-color="rgb(201, 201, 201)" />
      <stop offset="100%" stop-color="rgb(228, 228, 228)" />
    </linearGradient>
    <linearGradient id="outerGradient" x1="0" y1="0" x2="0" y2="1">
      <stop offset="0%" stop-color="rgb(255, 255, 255)" />
      <stop offset="17.78%" stop-color="rgb(228, 228, 228)" />
      <stop offset="48.89%" stop-color="rgb(182, 182, 182)" />
      <stop offset="51.11%" stop-color="rgb(158, 158, 158)" />
      <stop offset="81.11%" stop-color="rgb(201, 201, 201)" />
      <stop offset="100%" stop-color="rgb(228, 228, 228)" />
    </linearGradient>
    <linearGradient id="outlineGradient" x1="0" y1="0" x2="0" y2="1">
      <stop offset="0%" stop-color="rgb(44, 44, 44)" />
      <stop offset="100%" stop-color="rgb(211, 211, 211)" />
    </linearGradient>

    <filter id="outline">
      <feMorphology in="SourceAlpha" result="DILATED" operator="dilate" radius="1" />
      <feFlood flood-color="black" result="BLACK"/>
      <feComposite in="BLACK" in2="DILATED" operator="in" result="OUTLINE"/>
      <feMerge>
        <feMergeNode in="OUTLINE"/>
        <feMergeNode in="SourceGraphic"/>
      </feMerge>
    </filter>
    <filter id="dropShadow" x="-50%" y="-50%" width="200%" height="200%">
      <feDropShadow dx="0" dy="4" stdDeviation="4" flood-color="black" flood-opacity="0.5"/>
    </filter>
    <filter id="grayscale">
      <fecolormatrix type="matrix" values="0.3333 0.3333 0.3333 0 0.2 0.3333 0.3333 0.3333 0 0.2 0.3333 0.3333 0.3333 0 0.2 0 0 0 1 0"></fecolormatrix>
    </filter>
  </defs>
  <!-- 背景 -->
  <rect id="background" x="0" y="0" width="1920" height="1080" fill="#FFFFFF" />
  <!-- ヘッダー -->
  <g id="header" visibility="visible">
    <!-- ヘッダー背景 -->
    <rect id="header-back" x="0" y="0" width="1920" height="350" fill="url(#tokyuBackGradient)" filter="url(#dropShadow)" />
    <!-- 号車表示 -->
    <g id="header-carNum">
      <rect x="1708" y="22" width="108" height="108" rx="11" ry="11" fill="url(#outlineGradient)" />
      <rect x="1711" y="25" width="102" height="102" rx="11" ry="11" fill="url(#outerGradient)" />
      <rect id="carNumText" x="1723" y="39" width="78" height="78" fill="#99999950" data-style='{"fontWeight": "bold", "fontFamily": "sans-serif", "textAnchor": "middle"}' lang="en" />
      <rect id="carText" x="1822" y="80" width="78" height="38" fill="#99999950" data-style='{"fontWeight": "bold", "fontFamily": "BIZ UDGothic", "textAnchor": "middle", "fill": "rgb(255, 255, 255)"}' />
      <rect id="carTextEng" x="1590" y="35" width="110" height="38" fill="#99999950" data-style='{"fontWeight": "regular", "fontFamily": "sans-serif", "textAnchor": "middle", "fill": "rgb(255, 255, 255)"}' />
    </g>
    <!-- 行先方面表示 -->
    <rect id="header-viaText" x="431" y="51" width="275" height="62" fill="#99999950" data-style='{"fontWeight": "bold", "fontFamily": "BIZ UDGothic", "textAnchor": "start", "fill": "rgb(255, 255, 255)"}' />
    <rect id="header-destinationText" x="737" y="34" width="830" height="79" fill="#99999950" data-style='{"fontWeight": "bold", "fontFamily": "BIZ UDGothic", "textAnchor": "start", "fill": "rgb(255, 255, 255)"}' />
    <rect id="header-destinationTextEng" x="431" y="34" width="1136" height="79" fill="#99999950" data-style='{"fontWeight": "bold", "fontFamily": "sans-serif", "textAnchor": "start", "fill": "rgb(255, 255, 255)"}' />
    <!-- 種別表示 -->
    <g id="header-trainType">
      <rect x="21" y="22" width="363" height="108" rx="11" ry="11" fill="url(#outlineGradient)" />
      <rect id="trainTypeBackColor" x="24" y="25" width="357" height="102" rx="11" ry="11" fill="rgb(255, 51, 85)" />
      <rect x="24" y="25" width="357" height="102" rx="11" ry="11" fill="url(#outerGradient)" style="mix-blend-mode: multiply;" />
      <rect id="trainTypeText" x="40" y="38" width="325" height="75" fill="#99999950" data-style='{"fontFamily": "BIZ UDGothic", "fontWeight": "bold", "textAnchor": "middle", "fill": "rgb(255, 255, 255)", "letterSpacing": {"2": "30px", "3": "20px"}, "textShadow": "3px 3px 3px rgb(50, 50, 50)"}' />
      <rect id="trainTypeTextEng" x="40" y="38" width="325" height="75" fill="#99999950" data-style='{"fontFamily": "sans-serif", "fontWeight": "bold", "textAnchor": "middle", "fill": "rgb(255, 255, 255)", "letterSpacing": {"2": "30px", "3": "20px"}, "textShadow": "3px 3px 3px rgb(50, 50, 50)"}' />
    </g>
    <!-- ナンバリング -->
    <!-- <rect id="header-numbering-rect" x="479" y="149" width="168" height="168" fill="rgb(255, 255, 255)" /> -->
    <g id="header-numbering">
      <rect x="477" y="147" rx="30" ry="30" width="172" height="172" fill="rgb(255, 255, 255)" />
      <rect id="icon-lineColor" x="482" y="152" rx="25" ry="25" width="162" height="162" fill="#ff0000" />
      <rect id="icon-symbol" x="500" y="167" width="126" height="45" fill="#99999950" data-style='{"fontFamily": "sans-serif", "fontWeight": "bold", "textAnchor": "middle", "fill": "rgb(255, 255, 255)"}' lang="en" />
      <rect id="icon-number" x="500" y="228" width="126" height="70" fill="#99999950" data-style='{"fontFamily": "sans-serif", "fontWeight": "bold", "textAnchor": "middle", "fill": "rgb(255, 255, 255)"}' lang="en" />
    </g>
    <!-- 駅名 -->
    <rect id="header-stationNameText" x="690" y="140" width="1040" height="170" fill="#99999950" data-style='{"fontFamily": "BIZ UDGothic", "fontWeight": "600", "fill": "rgb(255, 255, 255)", "textAnchor": "middle", "letterSpacing": {"2": "110px","3": "30px", "4": "20px"}}' />
    <rect id="header-stationNameTextEng" x="690" y="140" width="1040" height="170" fill="#99999950" data-style='{"fontFamily": "sans-serif", "fontWeight": "600", "fill": "rgb(255, 255, 255)", "textAnchor": "middle"}' />
    <!-- つぎは、まもなく、ただいま -->
    <rect id="header-runStateText" x="75" y="240" width="305" height="73" fill="#99999950" data-style='{"fontFamily": "BIZ UDGothic", "fontWeight": "600", "fill": "rgb(255, 255, 255)", "textAnchor": "end"}' />
    <rect id="header-runStateTextEng" x="75" y="200" width="305" height="73" fill="#99999950" data-style='{"fontFamily": "sans-serif", "fontWeight": "600", "fill": "rgb(255, 255, 255)", "textAnchor": "end"}' />
  </g>

  <!-- 標準路線図ボディ -->
  <g id="body-defaultLine" style="isolation: isolate;" visibility="visible">
    <g filter="url(#outline)">
      <!-- 路線ベース左端（始点） -->
      <rect id="lineStart" x="0" y="721" width="226" height="87" fill="rgb(221, 221, 221)" />
      <!-- 路線ベース右端（終点） -->
      <polygon id="lineEnd" points="1694,721 1840,721 1882,765 1840,808 1694,808"
              data-basePoint="1694,721" fill="rgb(221, 221, 221)" />
      <!-- 路線ベースはしょり -->
      <path id="lineLeap1" d=" M 1484 721 L 1582 721 Q 1566 742.75, 1582 766.5 Q 1606 788.25, 1582 808 L 1486 808 Z "
        fill="rgba(0,191,255,0.47)" stroke-width="2" data-basePoint="1484,721"/>
      <path id="lineLeap2" d=" M 1694 721 L 1602 721 Q 1578 740, 1600 764.5 Q 1615 780, 1602 808 L 1694 808 Z "
        fill="rgba(0,191,255,0.47)" stroke-width="2" data-basePoint="1484,721"/>
      <!-- 路線ベース1影 -->
      <polygon points="0,721 1840,721 1882,765 1840,808 0,808"
              fill="url(#innerGradient)"
              style="mix-blend-mode: multiply;" />
      <!-- 路線ベース駅アイコン左端 -->
      <rect id="stationStart" x="172" y="730" width="108" height="69" fill="rgb(255, 255, 255)" />
      <!-- 路線ベース駅アイコン右端 -->
      <rect id="stationEnd" x="1640" y="730" width="108" height="69" fill="rgb(255, 255, 255)" />
      <!-- 路線ベース通過駅アイコン -->
      <polygon id="passStation" points="1256,738 1267,738 1296,764.5 1267,791 1256,791 1285,764.5" data-basePoint="1285,764.5" fill="rgb(255, 255, 255)" />
      <!-- 路線ベース2影 -->
      <polygon points="0,721 1840,721 1882,765 1840,808 0,808"
              fill="url(#outerGradient)"
              style="mix-blend-mode: multiply;" />
    </g>
    <g id="hereIcon" data-basePoint="228,721">
      <polygon points="172,719 232,719 276,764.5 233,809 173,809 216,764.5" fill="white" />
      <polygon points="180,721 228,721 270,764.5 227,809 179,809 222,764.5">
        <animate 
        attributeName="fill"
        values="red;blue"
        dur="2s"
        repeatCount="indefinite"
        calcMode="discrete" />
      </polygon>
      <polygon points="180,721 228,721 270,764.5 227,809 179,809 222,764.5"
              fill="url(#innerGradient)"
              style="mix-blend-mode: multiply;" />
    </g>
    <g id="body-defaultLine-stationText" data-basePoint="1694,721">
      <rect id="body-defaultLine-numRect" x="1640" y="686" width="108" height="31" fill="#999999" data-style='{"fontFamily": "sans-serif", "fontWeight": "bold", "textAnchor": "middle", "fill": "rgb(0, 0, 0)"}' lang="en" />
      <rect id="body-defaultLine-transferArea" x="1594" y="813" width="200" height="250" fill="#99999950" />
      <rect id="body-defaultLine-transferLine" x="1594" y="813" width="200" height="31" fill="#99999950" data-style='{"fontFamily": "BIZ UDGothic", "fontWeight": "600", "textAnchor": "start"}' data-textHeightRatio="0.9" />
      <rect id="body-defaultLine-stationName" x="1656.5" y="359" width="75" height="320" fill="#99999950" data-style='{"fontFamily": "ShinGoPr6N, BIZ UDGothic", "fontWeight": "600", "textAnchor": "middle"}' axis="vertical" spacing="5px" base="top" />
    </g>
  </g>

  <image href="./tokyu-jitubutu.png" x="0" y="0" width="1920" height="1080" opacity="0.2" />
  <!-- <image href="./seibu-sukusyo.png" x="0" y="5" width="1920" height="1080" opacity="0.2" /> -->
</svg>
